<svg width="127" height="18" viewBox="0 0 127 18" fill="none" xmlns="http://www.w3.org/2000/svg">
<g clip-path="url(#clip0_328_419)">
<mask id="mask0_328_419" style="mask-type:luminance" maskUnits="userSpaceOnUse" x="0" y="0" width="127" height="18">
<path d="M126.6 0H0V18H126.6V0Z" fill="white"/>
</mask>
<g mask="url(#mask0_328_419)">
<path d="M0 4.83076C0 7.46918 1.66345 8.83414 4.77809 9.74921L8.93093 10.9769C12.3003 11.9606 12.6245 13.1921 12.6245 14.8697C12.6245 15.8305 12.3003 16.7685 10.6175 16.7685H7.03977C5.19491 16.7685 4.13355 16.1661 3.57778 14.4885L2.63219 11.5831H1.45504L0.254728 17.4853V17.8894H11.9336C14.4462 17.8894 15.7623 16.0784 15.7623 13.7068V12.5211C15.7623 9.95128 14.3536 8.36136 10.8221 7.28998L7.10924 6.17284C3.9946 5.23491 2.95639 4.69731 2.95639 3.17602C2.95639 1.99026 3.57778 1.23152 5.12544 1.23152H9.53302C11.1 1.23152 11.7252 1.81106 12.5087 3.40097L13.7785 5.94789H14.9325V0.11057H4.03706C1.36241 0.11057 0 1.89875 0 4.04914V4.83076ZM112.501 8.54056V1.22771H118.086C119.657 1.22771 120.162 1.74243 120.162 3.24084V6.55031C120.162 8.04872 119.653 8.54056 118.086 8.54056H112.501ZM105.554 17.8894H114.994V17.4205L112.501 16.7494V9.74921H115.407C116.77 9.74921 117.275 10.3516 117.785 11.5145L119.68 15.922C120.162 17.0621 120.556 17.8894 121.872 17.8894H126.604V17.3976C125.172 16.9934 124.597 16.2804 124.18 15.2739L122.818 11.9644C122.331 10.7558 121.918 9.77208 120.255 9.55094V9.45944H121.316C123.069 9.45944 124.477 8.25079 124.477 6.577V3.13408C124.477 1.45647 123.092 0.118195 121.339 0.118195H105.554V0.587164L108.067 1.25821V16.7532L105.554 17.4243V17.8932V17.8894ZM91.0384 17.8894H100.452V17.4205L97.9585 16.7494V1.25058L100.452 0.579538V0.11057H91.0384V0.579538L93.5509 1.25058V16.7456L91.0384 17.4166V17.8856V17.8894ZM73.5239 16.7685V9.41368H77.6304V8.18598H73.5239V1.22771H79.1086C80.6794 1.22771 81.185 1.71955 81.185 3.24084V14.7592C81.185 16.2804 80.6756 16.7723 79.1086 16.7723H73.5239V16.7685ZM66.5999 17.8894H82.3622C84.1144 17.8894 85.5 16.5473 85.5 14.8469V3.15315C85.5 1.45266 84.1144 0.11057 82.3622 0.11057H66.5999V0.556662L69.1124 1.27346V16.7494L66.5999 17.4433V17.8932V17.8894ZM48.163 14.8697V3.13027C48.163 1.60898 48.6493 1.11714 50.2394 1.11714H54.921C56.7195 1.11714 57.229 1.60898 57.229 3.13027V14.8697C57.229 16.391 56.7195 16.8829 54.921 16.8829H50.2394C48.6454 16.8829 48.163 16.391 48.163 14.8697ZM43.848 14.9384C43.848 16.6388 45.2104 18 46.9627 18H58.41C60.1622 18 61.5478 16.635 61.5478 14.9384V3.04258C61.5478 1.34209 60.1622 0 58.41 0H46.9627C45.2104 0 43.848 1.34209 43.848 3.04258V14.9384ZM20.9765 5.92502H21.9221L23.3308 2.77187C23.7013 1.92163 24.6237 1.22771 26.1907 1.22771H27.5994V16.7685L25.083 17.4395V17.8894H34.5003V17.4395L32.007 16.7685V1.22771H33.3926C34.9634 1.22771 35.8858 1.92163 36.2988 2.85956L37.6612 5.9212H38.6068V0.11057H20.9765V5.92502Z" fill="white"/>
</g>
</g>
<defs>
<clipPath id="clip0_328_419">
<rect width="126.6" height="18" fill="white"/>
</clipPath>
</defs>
</svg>
